<svg version="1" xmlns="http://www.w3.org/2000/svg" viewBox="0 0 1400 980"><path fill="#151D38" d="M1132.5 978.8c.2-15.8 4.5-30.6 11.3-44.7 5.3-11 11.8-21.2 18.9-31.1 8.9-12.4 18.6-24.1 28.3-35.7 9.1-10.9 18.4-21.8 27-33.1 6-7.9 11.8-16 16.8-24.5 5.3-9 9.6-18.4 12.1-28.6 3.7-15.4 1.4-29.9-6.4-43.5-11.6-20.2-29-31.9-52-35.3-11.3-1.6-22.6-1.4-34-.2-20 2.1-39.3 7.1-58.6 12.4-14.8 4.1-29.6 8.2-44.4 12.2-8.3 2.3-16.8 4-25.4 5.1-8.3 1-16.6 1.5-24.8-.6-8.1-2.1-14-6.8-17.7-14.2-2.9-5.7-3.3-11.6-1.1-17.6 1.7-4.6 4.3-8.5 7.4-12.2 4.4-5.1 9.3-9.7 14.5-14 6.1-4.9 12.3-9.8 18.4-14.6 7.8-6.1 15.6-12.3 22.7-19.2 4.8-4.7 9.3-9.7 12.7-15.6 3-5 5.2-10.3 5.3-16.2.2-12.3-4.5-22.1-15.1-28.6-6.6-4.1-14-6.2-21.5-7.8-9.2-2-18.6-3.1-28-3.9-14-1.1-28.1-2-42.1-3.1-17.1-1.4-34.1-3.4-50.7-7.5-9.6-2.4-19.1-5.5-28.1-9.7-11.3-5.3-21.4-12.1-30.1-21.1l-1.7-1.7c-.4-.4-.9-.3-1.3-.1-.3.1-.5.4-.7.6-1.4 1.8-3.3 3.4-3.9 5.4-.5 1.9 1.3 3.8 2.2 5.6 8.8 19.2 12.3 39.4 10.3 60.3-2.6 28.1-13.8 52.3-33.4 72.7-3.4 3.6-3.7 2.7-.4 6.8 2.5 3.2 4.9 6.3 7.4 9.5 2.7 3.6 4.1 7.7 3.5 12.1-.9 6.9-4.5 12-11.2 14.3-6.6 2.3-12.6 1-17.7-3.9-.9-.9-1.7-1.9-2.5-2.9-6.1-7.8-12.2-15.6-18.3-23.5-.9-1.1-1.8-2.3-2.5-3.5-4-7-2.6-15.6 3.4-21 .9-.9 2-1.6 3-2.3 18.8-13.9 30.2-32.4 34.1-55.3 2.7-15.8.7-31.2-5.4-46.1l-.3-.9c-1.2-2.6-1.4-2.7-3.9-2-2.6.7-5.2 1.4-7.9 2-12 2.6-23.9 2-35.5-1.7-9.4-3-18.8-6.2-28.2-9.5-7.5-2.6-14.3-6.5-20.3-11.6-2-1.7-3.7-1.9-6.1-1.4-15 3.3-28.3 10.1-39.6 20.5-13.4 12.4-22 27.7-25.8 45.6-1.8 8.4-1.9 16.8-1.3 25.3.1.8.2 1.6.2 2.4.6 10-6.1 17.7-16.1 18.5-3.2.3-6.4.4-9.6.6-7.5.5-15 .9-22.5 1.4-2.1.1-4.2.1-6.2-.4-8.2-2.2-13.4-9.5-12.7-18 .8-9.2 8.5-15 15.2-15.3l14.4-.9c2.4-.2 2.7-.4 2.9-2.9.5-5.9 1.1-11.8 2.3-17.6 8.2-40.4 37.3-74.1 75.9-88 1.9-.7 4.1-.8 5.6-2.5-.5-1.8-.9-3.7-1.4-5.5-.1-.5-.2-.9-.3-1.4-1.2-5.1-.4-4.5-6.2-5.7-7.5-1.5-15-.8-22.4.3-12.7 1.9-25 5.3-37.3 8.7-12.8 3.5-25.6 7.1-38.6 9.5-12.8 2.4-25.6 3.6-38.7 2.5-11.8-1.1-22.9-4.4-33-10.6-4.3-2.6-7.2-6.3-8.2-11.3-1.3-6.5.5-12.1 5.5-16.4 5.2-4.5 11.2-5.2 17.5-2.8 1.2.4 2.3 1.1 3.4 1.8 6.2 3.6 13 5.3 20.1 5.7 9.5.6 18.8-.6 28.1-2.5 14-2.8 27.6-6.9 41.3-10.6 11.3-3 22.6-5.9 34.2-7.6 10.3-1.5 20.7-2.2 31.1-.7l2.4.3c2.3.2 2.4.2 3.2-1.9.7-1.9 1.4-3.9 2-5.9 2.6-7.7 5.3-15.4 7.9-23.2.5-1.4.9-2.7 1.2-4.1.2-.7-.1-1.3-.8-1.5-1.2-.4-2.5-.7-3.7-1.1-22.3-6-43.8-14.3-63.8-25.8-15.2-8.8-29.1-19.2-41.2-31.9-4.2-4.4-8.2-9-11.7-14-2.8-4-3.9-8.4-2.9-13.2 1.5-6.9 5.6-11.4 12.4-13.2 6.7-1.8 12.3.3 17 5.2l1.2 1.5c10.8 14.2 24.3 25.4 39.6 34.4 19.5 11.6 40.6 19.5 62.6 25.1 2.7.7 3 .5 3.9-2 1.6-4.5 3.1-9.1 4.7-13.6l.6-1.8c.3-.9 0-1.6-.8-1.9-1.3-.6-2.7-1-4.1-1.5l-16.8-5.7c-1.8-.6-2-1.2-1.6-2.8.4-1.4.9-2.7 1.4-4.1.4-1.1-.1-1.8-1.1-2.3-.7-.3-1.5-.6-2.2-.9-5.6-3-8.2-8.9-6.6-15 .3-1.2.8-2.4 1.2-3.6 1.5-4.2 4.5-6.9 8.7-8.2.6-.2 1.2-.3 1.9-.4 1.1-.3 1.4-.8.9-1.7l-2.4-3.6c-10.1-15.1-17.3-31.3-20.7-49.2-2.1-10.9-2.9-21.9-1.8-32.9 0-.3.1-.6.1-1 .4-5.7.7-4.8-4.5-6.6-2.1-.8-4.3-1.4-6.4-2.1-6.9-2.5-9.6-7.9-7.3-14.9 3-9.3 6.2-18.5 9.4-27.7 1-3 2-6.1 3.1-9.1 2.4-6.5 7.4-9.3 14-7.4 4.2 1.2 4.3 1 5.7-3l17.7-52.2.9-2.7c.3-1 .1-1.8-.8-2.6-.9-.7-1.7-1.4-2.4-2.3-3.1-3.7-3.5-9.4-.9-13.5 2.6-4.2 7.8-6.3 12.5-5.1 5.1 1.3 8.6 5.6 8.9 10.7.3 4.8-2.8 9.5-7.4 11.3-1.5.6-3.1.7-4.7.7-1.3 0-2.1.6-2.4 1.8l-.6 1.8c-6.1 17.9-12.1 35.7-18.2 53.6-.3.9-.6 1.8-.8 2.8-.1.4.3 1 .6 1.2 1.3.6 2.7 1 4.1 1.5.9.3 1.5-.1 2.1-.8.4-.5.7-1 1.1-1.6 15.5-22.5 36.4-37.9 61.9-47.3 13-4.8 26.4-7.8 40.1-9.2 35.2-3.5 69.2 1.8 102.2 14.1 26.5 9.8 50.7 23.7 71.8 42.6 14.1 12.6 26 26.9 35 43.5 11.3 20.9 16.7 43.1 15.6 66.9 0 .6 0 1.3-.1 1.9-.2 1.3.5 2.1 1.7 2.5l2.7.9c.9.3 1.6.1 1.9-.8.5-1.3 1-2.7 1.5-4l17.4-51.3c.2-.6.3-1.3.6-1.8.8-1.6.4-2.6-1-3.7-3.3-2.5-4.8-5.9-4.5-10 .3-5.4 4.3-9.7 9.5-10.5 5.7-.8 10.8 2.1 12.7 7.2 2.6 7-1.6 14.4-9.2 15.3-3.2.4-4.6 1.6-5.6 4.5-5.8 17.4-11.8 34.8-17.7 52.2l-.9 2.7c-.2.9.1 1.6.9 2 1 .5 2.1.8 3.1 1.2 5.5 2.4 8 7.5 6.5 13.3-.3 1.1-.7 2.1-1 3.2-3.6 10.8-7.3 21.5-10.9 32.3l-.9 2.7c-2.4 6.1-7.5 8.8-13.8 7.2-2.2-.6-4.3-1.4-6.4-2.1-1.2-.4-2.4-.9-3.6-1.2-1.8-.5-2-.4-3.1 1.2-.3.4-.5.8-.8 1.2-16.4 25.9-39.5 43.2-68.3 53.1-1.7.6-3.3 1.1-5 1.7-.8.3-.9.9-.4 1.5.5.7 1 1.2 1.5 1.9 2.6 3.6 3.1 7.6 1.9 11.9-.3 1.1-.7 2.1-1.1 3.2-2.6 6.3-8.3 9.4-15.1 8.2-.5-.1-.9-.3-1.4-.4-1.8-.4-2.1-.2-2.8 1.6-.5 1.3-.9 2.7-1.4 4.1-.3.9-1 1.2-1.9.9-1.1-.3-2.1-.6-3.2-1-7.1-2.4-14.2-4.8-21.4-7.2-1.1-.4-2.1-.7-3.2-1.1-1.1-.4-1.8 0-2.3 1l-.3.9c-1.3 3.9-2.7 7.9-4 11.8-.7 2.2-.6 2.4 1.2 3.5 1.1.7 2.2 1.3 3.3 1.9 23.7 13.1 48.6 22.7 75.2 28 13.7 2.7 27.5 3.9 41.5 3.5 2.7-.1 5.4-.2 8.1.5 7.5 2.1 12.8 8.9 12.7 16.7-.1 8-5.8 14.8-13.7 16.3-1.4.3-2.8.4-4.3.5-10.4.4-20.8-.1-31.1-1.2-35.8-3.9-69.2-15.4-100.8-32.2-.8-.5-1.7-.9-2.5-1.4-1.2-.6-1.7-.4-2.1.9-2.5 7.3-5 14.5-7.5 21.8-1.7 4.8-3.3 9.7-4.9 14.5-1.7 5-3.9 9.8-6.6 14.4-1.2 2-1.1 2.1.4 3.7 6.3 6.9 13.6 12.6 21.6 17.3 11.4 6.7 23.8 11 36.5 14.2 11.5 2.8 23.2 4.6 35 5.9 15.9 1.8 31.9 2.7 47.8 3.9 12.6 1 25.2 2 37.6 4.7 5.5 1.2 10.9 2.6 16 4.9 2.3 1 4.6 2.2 6.8 3.5 14.4 8.3 19.8 26.6 14.4 40.9-1.6 4.4-3.8 8.4-6.6 12.2-4.2 5.9-9.3 11-14.6 15.9-6.6 6-13.7 11.5-20.8 17.1-6.7 5.3-13.3 10.5-19.8 16-4.4 3.7-8.5 7.8-12.1 12.3-2.1 2.7-3.9 5.5-5.2 8.6-2.4 5.9-2 11.5 1.1 17.1 3.5 6.2 8.6 10.1 15.5 11.9 4.4 1.1 8.8 1.3 13.3 1.3 8.9-.1 17.5-1.7 26.1-3.6 15.6-3.5 30.9-8.1 46.3-12.4 15.5-4.4 31.1-8.6 47-11.6 12.6-2.4 25.3-3.9 38.1-3.8 10.1.1 20.2 1.2 29.8 4.5 24.6 8.5 40 25.7 47 50.5 3 10.4 2 20.9-.7 31.3-1.9 7-4.6 13.6-7.9 20-4.9 9.4-10.7 18.2-17 26.7-8.9 12-18.5 23.3-28 34.7-9.4 11.3-18.9 22.6-27.7 34.4-7.3 9.9-14.2 20.1-19.9 31.1-7.8 14.9-12.8 30.6-13.3 47.6-.8-.7-1.8-.7-2.7-.7z"/><path fill="#FFF" d="M831.5 120c-11.3.1-22.4 1.1-33.4 3.3-12.1 2.5-23.8 6.4-34.7 12.2-22.6 11.8-39.4 29.3-50.2 52.4-10.1 21.4-14.8 43.8-11.9 67.6 3.3 26.9 15.5 49.4 33.7 69.1 1 1.1 2.1 1.9 3.5 2.4 4.4 1.4 8.8 3 13.2 4.4 1.2.4 1.8-.1 1.7-1.4-.1-1.3-.2-2.6-.4-3.8-1-5.3-2-10.7-3.1-16-2.2-11.5-3.9-23-4.1-34.7-.1-5.5.3-10.9.8-16.3.4-4.1.3-4.1-3.6-4.7-.8-.1-1.6-.3-2.4-.4-17.3-3.4-28-21-23.1-37.9 5.5-19.3 27.5-28 44.8-17.7.8.5 1.6 1 2.4 1.6.8.5 1.5.4 2.1-.3.8-1 1.5-2 2.3-3.1 3.8-5.2 8.1-9.9 12.9-14.2 24.5-21.6 53-30.3 85.3-25.5 23.6 3.5 43.7 14.2 59.9 31.7 16.3 17.6 25.4 38.6 27.1 62.6.3 3.7.5 7.3.3 11-.2 2.9 0 3 2.8 3.2 1.9.2 3.8.2 5.7.6 16 3.5 23.9 17.8 23.8 29.8-.1 19.1-18.1 33.7-37 29.3-4.1-1-7.8-2.7-11.3-5.1-1.4-1-1.8-.9-2.7.5-2.8 4.1-5.4 8.3-8.3 12.3-7.2 9.9-15.8 18.4-25 26.5-4.9 4.3-9.8 8.7-14.7 13.1-1 .9-1.8 1.8-2.7 2.7-.6.7-.4 1.5.5 1.8 5.1 1.8 10.3 3.5 15.4 5.3 1.3.4 2.5.3 3.8.1 5.2-.9 10.4-2 15.4-3.5 19.6-5.6 37.1-14.8 51.6-29.2 22.2-22.1 33.5-49.2 35.8-80.1 1.8-23.5-4.2-45.3-16.3-65.6-7.5-12.6-16.8-23.8-27.8-33.5-37.9-33.2-82.3-49.1-132.1-50.5z"/><path fill="#B2ACBF" d="M748.7 273.6c.2 12 1.8 23.9 4.1 35.7 1.3 6.6 3 13.1 3.5 19.8.2 3.3 1.5 5 4.7 5.5.2 0 .3.1.5.1 29.7 10.1 59.3 20.2 89 30.3 9.2 3.1 18.5 6.2 27.7 9.4 1.8.6 2.9.4 4.2-1 2.5-2.5 5-4.9 7.7-7.3 5.4-4.8 10.8-9.5 16.1-14.4 18.3-16.7 31.5-36.8 39.7-60.3 6.5-18.6 7.6-37.5 2.8-56.7-12.8-51.8-62.5-82.8-112.7-75.1-34.2 5.2-63.7 28.3-76.8 60.5-7.1 17.2-10.3 35-10.5 53.5z"/><path fill="#CCD6DA" d="M834.8 497.4c4.5.1 8 4.5 6.1 8.6-1.4 3-.9 5.1 1 7.3.8 1 1.5 2 2.3 3 .5.6 1.1.7 1.6 0 .8-1.2 1.5-2.4 2.2-3.7 3.2-6.1 5.1-12.8 7.4-19.2 1.4-3.9 1.3-4.1-2.6-5.4-.5-.1-.9-.3-1.4-.5-44.2-15-88.3-30.1-132.5-45.1l-15-5.1c-2.3-.8-2.5-.6-3.4 1.8-1.5 4.2-3 8.4-4.3 12.7-4.3 13.8-4.3 27.7 0 41.5 1.6 5.1 2.6 4.9-3.5 6.9-16.9 5.4-31.7 14.4-44.5 26.6-4.3 4.1-8.2 8.5-11.8 13.3-2.1 2.8-2.1 2.9.6 4.8 4.7 3.3 9.5 6.5 14.3 9.7 1.6 1.1 3.2 2.2 4.8 3.2.8.5 1.5.4 2.1-.3.7-.8 1.4-1.8 2.1-2.6 13.4-16.3 30.5-26.5 51.1-30.8 2.6-.5 4.5 0 6.5 1.7 6.6 5.7 14.2 9.8 22.5 12.6 8.3 2.8 16.6 5.7 25 8.4 14 4.5 28 4.5 42 0l2.7-.9c2.4-.7 2.9-.5 4.1 1.9.1.1.2.3.2.4 6.6 14.6 9.3 29.9 7.5 45.8-.4 3.6-1 7.3-1.8 10.9-.3 1.6-.1 2.2 1.7 2.7.5.1.9.2 1.4.3 6.5 1.5 13.1 3 19.6 4.5 4.5 1 4.2.4 5-3.4 4.5-21 3.2-41.6-3.7-61.9-1.9-5.5-4.1-10.7-6.8-15.8-.8-1.4-.8-2.7.4-3.9.6-.6 1.1-1.2 1.6-1.8 1.4-1.7 3.1-3.3 3.8-5.5-1.1-1.6-2.1-3.2-3.2-4.7l-2.4-3.6c-.5-.7-1.1-1.1-2-1.2-.9-.1-1.9-.1-2.8-.4-3.2-1-5-4-4.5-7.5.3-3.1 3.1-5.4 6.6-5.3z"/><path fill="#EDCFE4" d="M977.6 497.6c1.1.1 1.6-.2 1.8-2.5.5-7.7 1-15.3 1.4-23 .1-2-.1-2.2-2-2.5-4.7-.7-9.5-1.1-14.3-1.9-30.1-5.2-58.2-15.9-84.7-31-4.4-2.5-4.5-2.3-2.8-7.5 1.4-4.1 2.7-8.2 4.1-12.3.4-1.1.1-1.9-1-2.3-1.3-.5-2.7-1-4.1-1.4-41.5-14.1-82.9-28.2-124.4-42.2-7.4-2.5-14.8-5.1-22.2-7.5-3.1-1-3.1-1-4.1 1.9l-4.8 14.1c-.4 1.2-.8 2.4-1.3 3.6-.4 1-1.3 1.4-2.4 1.2-2.2-.5-4.4-1-6.5-1.6-29-7.7-56.3-19.1-79.9-38.1-1.9-1.5-2-1.5-3.9.5-4.5 4.8-8.9 9.6-13.4 14.4-4 4.4-4.3 3.6.4 7.4 13.8 11.1 28.9 20 45 27.3 14.6 6.6 29.7 11.8 45.2 15.8 1.4.4 2.8.7 4.1 1.2.8.3 1.2 1.1 1 1.9-.1.8-.4 1.5-.7 2.3-1.5 4.4-3 8.8-4.4 13.2-1.9 5.7-2.5 4.9 3.3 6.9 45.5 15.5 91.1 31 136.6 46.5 3.9 1.3 7.9 2.7 11.8 4 1.5.5 1.9.2 2.5-1.2.3-.7.5-1.5.8-2.3 1.6-4.8 3.3-9.7 4.9-14.5.5-1.5 1.1-3 1.7-4.5.4-1 1.4-1.4 2.3-1 1.3.6 2.6 1.3 3.8 2 20.9 11.4 42.7 20.2 65.7 26.3 13.3 3.2 26.4 5.5 40.5 6.8zM831.2 117.3c16.4-.1 32.7 2.1 48.7 6.2 28.6 7.3 54.7 19.7 77.8 38.1 14.6 11.7 27.1 25.3 36.6 41.6 9.4 16.1 15 33.5 16.2 52.2 1 16.3-1.5 32.2-6.7 47.7-7.6 22.2-19.8 41.1-38.2 55.9-14.3 11.5-30.6 19-48.4 23.5-2 .5-4 .9-6.1 1.5-.3.1-.5.4-.7.6-.4.7.3.8.6.9 5.4 1.9 10.9 3.7 16.3 5.6 1.6.6 3.2.5 4.7 0 2.7-.9 5.5-1.7 8.2-2.6 25.5-9 46.6-23.8 62.1-46.1 15.2-21.8 23.2-46.2 24.3-72.7.8-20.2-3.7-39.4-12.6-57.5-8.3-17-19.8-31.7-33.5-44.7-18.3-17.3-39.4-30.6-62.4-40.6-27.9-12.1-56.9-19-87.4-19.8-18.8-.5-37.4 1.5-55.5 6.8-18.8 5.5-35.9 14.3-50.7 27.4-16.6 14.6-28 32.7-35.3 53.5-8.4 24-10.5 48.3-4.3 73.1 4.3 17.3 12.2 32.9 22.7 47.2.9 1.2 1.8 2.2 3.2 2.7 5.8 1.9 11.5 3.9 17.3 5.8.4.1.7.1.8-.2.1-.3 0-.7-.2-.9l-2.4-3c-5.3-6.5-10-13.3-14-20.6-9-16.4-14.2-33.8-14.9-52.6-.5-15.4 1.9-30.3 6.9-44.8 13.1-38.1 38.7-63.7 76.9-76.6 16.3-5.4 32.9-7.6 50-7.6z"/><path fill="#CCD6DA" d="M704.7 319.3c-4 .2-7 2-8.9 5.6-.7 1.3-1 2.7-1.5 4-1.7 4 .4 10.2 5.6 12.3 1.9.8 3.9 1.5 5.9 2.1 23 7.8 46 15.6 69 23.5 47.1 16 94.1 31.9 141.2 47.9 2.1.7 4.3 1.4 6.4 2 2.6.8 5.1.2 7.4-1.1 4.3-2.5 7-9.6 5.4-14.3-.9-2.7-2.6-4.8-5.2-6-1.1-.6-2.4-.9-3.6-1.3l-14.1-4.8C858.2 370.8 804 352.4 749.8 334c-13.3-4.5-26.6-9.1-40-13.6-1.6-.5-3.2-1.2-5.1-1.1z"/><path fill="#EDCFE4" d="M596.3 638.8c10.4-.6 20.7-1.2 31.1-1.9 1.3-.1 2.5-.3 3.8-.7 6-1.7 9.9-6.8 10-13.1 0-1.6-.2-3.2-.3-4.8-.4-6.9-.4-13.7.6-20.6 1.4-9.7 4.4-19 8.9-27.7 1-2 1-2.3-.9-3.5l-19.2-12.6c-.3-.2-.5-.4-.8-.5-.8-.4-1.5-.5-2 .4-.6 1-1.1 1.9-1.7 2.9-4.2 8.1-7.5 16.6-9.7 25.5-1.9 7.6-3 15.4-3.4 23.2-.2 4.3-.3 4.3-4.8 4.6-4.9.3-9.9.6-14.8 1-7 .6-12.3 5.9-12.8 12.7-.6 7.5 4.3 13.3 10.9 14.9 1.6.4 3.4.3 5.1.2zM813.2 709.2c10.3-.1 16.9-11 12.2-20.2-.6-1.3-1.5-2.4-2.4-3.6-2.6-3.4-5.3-6.8-8-10.2-2.7-3.4-3.4-3.7.3-7 .2-.2.5-.4.7-.7 9-9 16.5-19.2 22.1-30.6 1.8-3.7 3.4-7.6 4.9-11.4.7-1.8.4-2.3-1.4-2.8-4.2-1-8.4-2-12.6-2.9-3.6-.8-7.2-1.7-10.7-2.5-1.5-.3-1.9-.1-2.6 1.3-.3.6-.5 1.2-.8 1.8-6.4 14.7-16.2 26.7-29.2 36.1-.9.7-1.8 1.3-2.7 2-5.2 4.7-6.1 12-2.4 17.9.6.9 1.3 1.8 2 2.7l18 23.1c.7.9 1.4 1.8 2.1 2.6 3 3 6.4 4.4 10.5 4.4z"/><path fill="#B2ACBF" d="M983.9 295.8c.4-8.9-5.1-21.4-18.3-26.1-3.2-1.1-6.5-1.7-9.9-1.5-1.1.1-1.7.6-1.9 1.7-.4 2.8-.9 5.7-1.4 8.5-2.2 11.2-6.4 21.7-11.3 31.9-.7 1.4-1.4 2.9-2.2 4.3-.4.8-.5 1.6.2 2.2 1 .8 2 1.6 3.1 2.3 9 5.2 18.2 5.5 27.4.5 9.3-5.1 13.9-13.3 14.3-23.8zM718.9 224.3c.2 13.6 9.8 24.8 23 27.1 5.3.9 5.3.9 6.3-4.1.1-.5.1-.9.2-1.4 2.8-14 7-27.5 14.3-39.9.2-.4.5-.8.7-1.3.5-.8.4-1.5-.3-2.1l-1.5-1.2c-9.2-5.7-18.7-6.2-28.2-1.1s-13.9 13.6-14.5 24z"/><path fill="#CCD6DA" d="M705.5 346.3c-.3.2-.9.3-1.1.6-.4.7-.7 1.4-1 2.2-.5 1.6-.2 2.3 1.5 2.9 7.6 2.6 15.1 5.1 22.7 7.6 21.9 7.4 43.9 14.9 65.8 22.3 38.7 13.2 77.4 26.3 116.1 39.5 1.1.4 2.1.8 3.2 1 .4.1 1 0 1.3-.3 2.1-2.2 1.6-4.4-1.1-5.4-1.2-.4-2.4-.9-3.6-1.3-30.1-10.2-60.2-20.4-90.3-30.7-36.8-12.5-73.5-24.9-110.3-37.4-1-.3-2.1-.6-3.2-1zM663 208.7c.3 3.5 1.9 6.1 5.2 7.4 3.1 1.2 6.3 2.3 9.5 3.3 1.7.6 2.3.2 2.7-1.6.1-.6.2-1.3.3-1.9 3.1-16.3 8.6-31.7 16.8-46 .3-.6.6-1.1.8-1.7.3-.7 0-1.3-.6-1.5-3.9-1.3-7.8-2.9-11.8-3.9-4.1-1.1-7.6.9-9.4 4.7-.3.6-.5 1.2-.7 1.8-4 11.9-8.1 23.8-12.1 35.8-.3 1.1-.8 2.3-.7 3.6zM1046.8 291.3c-.3-4-1.9-6.7-5.4-8.1-2.7-1-5.4-1.9-8.1-2.8-4.9-1.7-4.2-1.3-4.9 3.1-2.1 14.1-6.2 27.7-12.1 40.7-1.3 2.8-3.5 5.3-3.5 8.6 2.8 1.7 5.9 2.3 8.9 3.4l.9.3c5.3 1.5 9.1-.4 11.1-5.5l.6-1.8c3.8-11.3 7.7-22.6 11.5-34 .4-1.4.7-2.9 1-3.9zM509.9 479.6c.2 4.9 2.5 8.8 6.9 11.6 5.7 3.5 11.9 6.2 18.4 8 1.6.4 2.4.1 2.8-1.5 1-3.5 1.9-7.1 2.8-10.6 1.1-4 2.1-8 3.1-12 .4-1.8.1-2.4-1.6-2.9-4.2-1.1-8.1-3-11.8-5.2-.5-.3-1.1-.6-1.7-.8-9.1-3.7-19 3.2-18.9 13.4zM598.6 316.6h-1.7c-10.7.8-16.7 12.6-10.8 21.6 3.3 5.1 7.4 9.6 11.6 14 1.5 1.5 1.8 1.5 3.5-.2 5.5-5.5 11-11.1 16.5-16.7.8-.8 1.1-1.5.3-2.5-3.3-3.9-6.5-7.8-9.9-11.7-2.5-2.8-5.9-4.1-9.5-4.5zM676.4 451.8c-4.1-.1-7.9.2-11.7.7-2.2.3-2.4.5-2.4 2.7.2 5.6.4 11.1.6 16.7.1 2.1.1 4.1.2 6.2.1 2.1.5 2.4 2.7 2.2 3.5-.2 7-.6 10.5-.7 4.2-.2 8.3.5 12.3 1.3.7.1 1.2-.2 1.3-1 .1-.6.1-1.3 0-1.9-.2-5.9-.2-11.8.9-17.6.3-1.7.7-3.4 1-5.2.3-1.7-.2-2.3-1.9-2.6-4.5-.3-9.1-1-13.5-.8zM1000.7 498.5c1.3-.1 3.6-.3 6-.5 1.4-.1 2.8-.5 4.1-1.2 5.5-2.6 8.9-8.8 7.9-14.5-1.1-6.7-6.2-11.6-12.9-12.1-3.3-.2-6.7.1-10 .2-.9 0-1.5.5-1.6 1.5-.1.8-.1 1.6-.2 2.4-.4 5.6-.8 11.1-1.3 16.7-.6 8.6-1.3 7.4 8 7.5zM615.2 488.2c-1-7.3-2-14.6-3-21.8-.2-1.7-.6-1.9-2.2-1.5-5.6 1.4-11.1 2.8-16.7 4.3-2 .5-2.3.8-2.2 3 .3 5.4.8 10.8 1.2 16.3.2 2.5.4 5.1.7 7.6.1 1.3.6 1.7 1.9 1.3 6.2-1.5 12.4-3 18.6-4.6 1.6-.4 2.4-.9 1.9-3.2-.1-.4-.1-.9-.2-1.4zM555.1 501.8h7.6c.9 0 1.5-.5 1.7-1.4.1-.5.2-.9.3-1.4.7-7.8 1.4-15.5 2-23.3.1-1.2-.4-1.8-1.6-1.8-4.9.2-9.9.2-14.8-.2-2.6-.2-2.7-.1-3.5 2.7-1.6 5.8-3.1 11.7-4.7 17.5-.4 1.5-.8 3.1-1.1 4.6-.2 1.2.2 1.8 1.3 2.1 4.2 1 8.5 1.2 12.8 1.2zM634.4 458.3c-.3.1-1 .1-1.6.3-5.1 1.4-10.2 2.7-15.3 4.1-2.5.7-2.7 1-2.3 3.8.7 5.2 1.5 10.4 2.2 15.6.3 2.4.6 4.7 1 7.1.3 1.6.8 2 2.3 1.6 5.4-1.5 10.8-2.9 16.2-4.4 1.7-.5 2-.9 1.8-2.8-.6-6.2-1.3-12.4-1.9-18.6-.2-1.9-.5-3.8-.8-5.7-.1-.7-.6-1-1.6-1zM567.9 496.7c0 .8-.1 1.6-.1 2.4-.1 2.2.3 2.7 2.4 2.5 6-.6 12.1-1.4 18-2.7 1.5-.3 1.9-.7 1.8-2.3-.2-3.2-.5-6.4-.8-9.6-.4-4.6-.7-9.2-1.1-13.9-.2-2-.6-2.4-2.3-2.2-4.7.8-9.4 1.6-14.2 2.4-1.3.2-1.8 1.1-1.9 2.4-.5 7-1.2 14-1.8 21zM660.2 467.7h-.3c-.2-4.1-.4-8.3-.6-12.4-.1-1.6-.6-1.9-2.1-1.8-5.6.6-11 1.9-16.4 3.1-1.3.3-1.7.9-1.5 2.5.3 3.2.6 6.4 1 9.5.5 4.9 1.1 9.8 1.7 14.7.1.9.6 1.4 1.6 1.2 5.2-1.1 10.3-2.2 15.5-3.3.9-.2 1.3-.8 1.3-1.7-.2-3.8-.2-7.8-.2-11.8z"/><path fill="#151D38" d="M717.4 98.6c4.9 0 8.9-4 8.9-8.8-.1-4.5-4.1-8.5-8.6-8.6-4.8-.1-8.8 4-8.8 8.9 0 4.7 3.8 8.5 8.5 8.5zM1069.8 206.3c-.5-5.6-4.8-8.6-9.2-8.4-4.7.3-8.3 4.1-8.1 8.9.1 4.7 4 8.5 8.6 8.5s8.9-4.3 8.7-9z"/><path fill="#FFF" d="M625.8 341c-.2-.4-.3-.8-.6-1-.8-.8-1.6-1.6-2.4-2.3-1.5-1.3-1.7-1.4-3.1 0-5.5 5.6-11 11.1-16.5 16.7-1.4 1.5-1.4 1.7 0 3.1.9.9 1.8 1.8 2.8 2.6.9.8 1.7.7 2.5-.1.2-.2.5-.4.7-.7l15.3-16.5c.5-.5.9-1.2 1.3-1.8zM982.8 489.5c-.1 2.1-.1 3.3-.2 4.4-.3 4.3-.2 4.1 4.1 4.3 2.1.1 2.6-.3 2.7-2.3.6-7.7 1.1-15.3 1.7-23v-1c-.1-.9-.6-1.5-1.5-1.5-1-.1-1.9-.2-2.9-.2-2.4-.1-2.8.2-3 2.6-.3 5.9-.6 11.8-.9 16.7zM632.8 546.1c-.3.2-.6.3-.8.5-.4.5-.8 1-1.1 1.5-.8 1.3-.7 1.9.6 2.8 1.8 1.3 3.7 2.5 5.6 3.7 4.8 3.1 9.6 6.3 14.4 9.4 1.5 1 2 .8 3-.8s1-2-.6-3.1c-6.6-4.5-13.1-9-19.7-13.4-.6-.2-1-.4-1.4-.6zM843.2 619.9c1 .1 1.6-.2 2-.9.7-1.3.3-2.6-1.2-2.9-7.7-1.8-15.5-3.5-23.3-5.3-.3-.1-.6-.2-.9-.2-1.3 0-1.4 1.1-1.7 1.9-.4 1 .2 1.4 1 1.8.3.1.6.3.9.3 7.4 1.7 14.9 3.4 22.3 5.1.3.1.6.1.9.2z"/><path fill="#151D38" d="M1307.2 575.6c-.3.6-.6 1.1-.8 1.7-1.5 3.8-4.5 5.7-8.6 5.4-4-.4-7.3-3.3-7.8-7.2-.2-1.1-.3-2.3.1-3.3.7-2 .2-3.3-1.5-4.5-1.3-.9-2.5-2-3.7-3-1.1-.9-2.2-2-3.5-2.4-1.5-.4-2.4 1.2-3.6 1.9-6.7 3.7-13.2 3.5-19.4-1-3.1-2.3-6-4.8-9-7.2-1.3-1-1.8-.9-2.8.2-.9.9-1.7 2-2.5 2.9-6.2 7.6-12.3 15.1-18.5 22.7-.6.7-1.2 1.5-1.8 2.2-1.4 1.5-2.1 1.7-3.7.4-3.1-2.5-6.2-5-9.3-7.6-1.7-1.4-3.5-2.8-5.2-4.3-1.1-1-1.2-1.7-.3-2.9.8-1.2 1.8-2.3 2.7-3.4 6.3-7.7 12.5-15.4 18.8-23.1l1.2-1.5c1.4-1.9 1.4-2.1-.2-3.5-1.7-1.4-3.4-2.9-5.2-4.3-6.4-5.2-8.4-12.6-5.5-20.2.3-.7.7-1.5.9-2.2.1-.3.1-.6 0-.9-.2-.9-3.8-3.9-4.6-3.9-.3 0-.6.1-.9.3-1 .8-1.9 1.7-3 2.4-9.2 7-21.8 7.6-31.5 1.4-.7-.4-1.3-.9-2-1.4-1.4-1.1-1.5-1.9-.5-3.2.8-1.2 1.8-2.3 2.7-3.4 3.6-4.5 7.3-8.9 10.9-13.4 1.3-1.6 1.3-1.9-.2-3.1-3.4-2.9-6.9-5.7-10.4-8.5-.7-.6-1.6-1.1-1.9-2.1-.1-.4.1-.9.2-1.3.2-.5.9-.6 1.2-.4 1 .5 1.9 1.1 2.8 1.8 3.2 2.6 6.4 5.3 9.7 7.9 1.9 1.5 2 1.5 3.5-.3 3.7-4.4 7.3-8.9 10.9-13.4.5-.6 1-1.2 1.5-1.9 2.3-3.1 3.4-2.8 6-.1 8 8.1 10.1 20.7 5.3 31.1-.2.4-.5.8-.7 1.3-.4 1.2-2 2.1-1.3 3.4.9 1.7 2.6 2.8 4.3 3.6.3.2.9-.1 1.3-.3.4-.2.8-.5 1.2-.8 5.5-4.4 15.4-4.9 22.1 1.3 1.6 1.5 3.5 2.8 5.2 4.2.9.7 1.7.6 2.5-.3l2.7-3.3c6.3-7.7 12.5-15.4 18.8-23 .6-.7 1.2-1.5 1.9-2.2.8-.8 1.7-.9 2.6-.3 1.3.9 2.5 2 3.8 3 3.6 2.9 7.2 5.8 10.8 8.8 1.9 1.6 1.9 2.1.4 4-5.7 7.1-11.5 14.1-17.3 21.2-1.8 2.2-3.6 4.5-5.5 6.7-.7.9-.8 1.7.2 2.5 2 1.6 4 3.2 5.9 4.9 1.1.9 2.3 1.8 3.3 2.8 5.6 5.1 7.3 12.1 4.6 19.2-.3.7-.6 1.5-1 2.2-.4.9-.1 1.5.6 2.1 1.7 1.4 3.6 2.7 5.2 4.3 2 2 3.9 2.4 6.7 1.2 4.3-1.8 8.4.5 10.3 5 .2.4.5.8.8 1.1.1 1.4.1 2.7.1 4z"/><path fill="#B2ACBF" d="M1282.9 549.5c-.2-4.6-2.1-8.4-5.8-11.4-8.1-6.5-16.1-13.1-24.1-19.6-.8-.6-1.6-2-2.8-1.3-.8.5-.3 1.8-.3 2.7.5 9-6.7 16.7-15 17.5-.3 0-.6 0-.9.1-.3.1-.6.2-.7.4-.3.5.1.9.4 1.2.3.3.7.6 1.1.9 8.2 6.7 16.3 13.3 24.5 20 .9.7 1.8 1.4 2.7 1.9 9.1 4.9 20.4-1.1 20.9-12.4z"/><path fill="#EDCFE4" d="M1217.2 487c.1-5.3-1.8-10.6-5.6-15.2-1.9-2.3-2.3-2.3-4.3.1-9.1 11.1-18.1 22.2-27.2 33.3-.3.4-.6.7-.9 1.1-.6.8-.3 1.5.5 2 1 .6 1.9 1.2 2.9 1.6 16.2 7.3 34.5-4.5 34.6-22.9zM1246.9 520c-.2-5.6-2.7-9.8-7.7-12.3-4.9-2.5-9.9-2.1-14.5 1-1.3.8-1.4 1.7-.3 2.6 1.9 1.7 3.9 3.3 5.9 4.9 1 .8 2 1.6 2.9 2.4 1 .9 1.2 1.8.5 2.5-.9.9-1.8.3-2.5-.3-.9-.7-1.7-1.4-2.6-2.1-2-1.6-3.9-3.2-5.9-4.8-1.4-1.1-2.1-.8-2.8.9-2.2 5.3-1 11.4 3.1 15.5s10.2 5.2 15.5 3c4.4-1.9 8.7-7 8.4-13.3z"/><path fill="#FFF" d="M1213.7 574.8c.4-.4 1-.7 1.3-1.2 2.3-2.7 4.5-5.4 6.7-8.1 3.4-4.3 3.5-3.4-1.1-7.1-.9-.7-1.7-.8-2.4.2-2.3 2.9-4.7 5.7-7 8.5-3.3 4.1-3.2 4.6 1.4 7.4.3.1.7.1 1.1.3zM1221.3 581.3c.5-.3 1-.5 1.3-.8 2.4-2.8 4.7-5.6 7-8.5 3.5-4.3 3.7-3.3-.9-7.1-1.2-1-1.7-.9-2.8.4-2.5 2.9-4.9 5.9-7.3 8.9-2.6 3.2-2.9 2.8.8 5.8.6.4 1.2.9 1.9 1.3zM1279.9 509.8c.3-.3.8-.6 1.1-.9l8.1-9.9c1.6-2 1.5-2.2-.3-3.8l-1.5-1.2c-1.8-1.4-2.1-1.4-3.5.2-2.5 3-5 6.1-7.5 9.2-2 2.5-2 2.5.4 4.4.7.6 1.5 1.2 2.3 1.7.3.2.6.2.9.3zM1277.6 486.5c-.8.1-1.2.6-1.6 1.1-2.3 2.8-4.7 5.7-7 8.5-2.8 3.4-2.8 3 .6 5.9.4.3.7.6 1.1.9.8.5 1.5.5 2.1-.2 2.3-2.8 4.7-5.7 7-8.5 3.2-3.9 3-4.7-1.5-7.4-.2-.2-.5-.2-.7-.3zM1269.4 506.5c0-.2 0-.3-.1-.4-1.2-1.5-2.7-2.7-4.4-3.6-.5-.3-1 .1-1.2.4-3 3.7-6.1 7.4-9.1 11.1-.6.7-.4 1.5.3 2.1l3 2.4c.9.8 1.8.5 2.5-.3l8.7-10.8.3-.9zM1266.4 525.3c1.1.2 1.5-.3 1.9-.8 2.6-3.2 5.3-6.4 7.9-9.6 1.6-2.1 1.6-2.2-.3-3.8-.7-.6-1.5-1.2-2.2-1.8-.7-.5-1.4-.7-2.1.1l-9 11.1c-.3.4-.5.9-.1 1.3 1 1.5 2.6 2.6 3.9 3.5zM1232.7 542.4c-1.2-.3-1.6.3-2 .8-2.4 2.9-4.8 5.9-7.2 8.8-2.3 2.9-2.3 2.9.5 5.2l1.5 1.2c.7.5 1.5.6 2.1-.2 3-3.7 6-7.4 9-11 .3-.4.5-.9.1-1.3-1.4-1.4-2.9-2.6-4-3.5zM1234.5 565.1c.3-.2.8-.3 1.1-.6 3-3.6 5.9-7.1 8.8-10.7.6-.8.4-1.5-.3-2.1-1.1-.9-2.2-1.8-3.4-2.7-.6-.4-1.3-.3-1.7.2-3.1 3.7-6.1 7.4-9.1 11.1-.5.6-.3 1.2.2 1.7 1.1 1 2.2 1.8 3.3 2.7.3.2.7.3 1.1.4zM1298.6 579.6c3.2 0 5.7-2.5 5.7-5.7 0-3.1-2.6-5.8-5.7-5.8s-5.8 2.7-5.8 5.8c0 3.1 2.6 5.7 5.8 5.7z"/><path fill="#151D38" d="M1012.5 76.4c1 1.4.9 3 .9 4.6 0 2.3.4 4.5 1 6.6 1.1 4 3.4 6.8 7.9 7.3.8.1 1.5.4 2.3.7.5.2.5 1.5 0 1.7-.9.3-1.8.7-2.7.8-4.2.6-6.4 3.3-7.5 7.1-.7 2.6-1 5.3-1.1 8.1 0 .6-.2 1.3-.4 1.8s-.7.6-1.2.5c-.3-.1-.7-.3-.7-.5-.2-.8-.4-1.5-.4-2.3 0-2.6-.4-5.1-1.1-7.6-1.1-3.8-3.3-6.6-7.5-7.1-.8-.1-1.6-.3-2.3-.5-.4-.2-.8-.6-.6-1.1.1-.4.4-.9.8-1 .6-.3 1.2-.4 1.8-.5 4.5-.4 6.8-3.2 7.9-7.3.6-2.3 1-4.7 1-7.1 0-1.4 0-2.9 1-4.1.2-.1.6-.1.9-.1zm3.9 20.1c-.1-.3-.1-.6-.3-.9-1.1-1.4-2.2-2.7-3.3-4.1-.5-.6-.9-.8-1.5-.1-1 1.2-1.9 2.5-3 3.7-.8.9-1 1.5-.1 2.4 1.1 1.2 2 2.5 3 3.7.5.6.9.9 1.4.1 1-1.5 2-2.9 3.3-4.1.3 0 .3-.4.5-.7zM92.8 494.9c1.7-.6 3.2-1.2 5-1.5 4-.5 6.1-3.2 7.2-6.8.8-2.6 1.1-5.3 1.2-8.1 0-.8 0-1.6.5-2.3.2-.2.5-.4.8-.4.3 0 .7.1.8.3.6.6.5 1.5.6 2.3.1 2.2.2 4.5.7 6.7 1.1 4.6 3.4 7.9 8.5 8.5 1 .1 2.5 0 2.4 1.7-.1 1.1-1.3 1.2-2.3 1.3-4.9.4-7.3 3.4-8.4 7.9-.6 2.4-.7 4.7-.8 7.1 0 .6 0 1.3-.3 1.9-.2.4-.7.8-1.1.8-.4 0-1-.3-1.1-.7-.2-.6-.2-1.2-.3-1.9-.3-2.4-.4-4.8-.9-7.1-1-4.4-3.3-7.7-8.3-7.9-1.5-.1-2.6-1.4-4.1-.8-.1-.3-.1-.7-.1-1zm15 5.6c.1-.1.3-.2.4-.3 1.3-1.6 2.6-3.2 3.8-4.8-.5-2.1-2.7-3-3.5-4.9-.1-.1-.2-.3-.2-.4-.5-.7-1.1-.5-1.5.1-.9 1.5-2 2.8-3.3 4-.5.4-.8 1.1-.2 1.6 1.5 1.2 2.5 2.9 3.6 4.3.2.3.6.3.9.4zM451.6 223c-.3 30.3-7.7 59.1-24.3 85.2-4.9 7.7-10.4 15-16.7 21.6-1.8 1.9-2.6 3.9-2.7 6.4-.4 8.9-.8 17.9-1.3 26.8-.2 3.7-.4 7.3-.7 11-.1 1.7-1.2 2.2-2.7 1.3-1.1-.6-2.2-1.3-3.3-2-6.7-4.1-13.3-8.3-20-12.4-.8-.5-1.7-1-2.5-1.5-1-.7-1.8-.3-2.4.6-1.9 3-3.7 6-5.6 9-.8 1.2-1.5 2.5-2.3 3.7-.9 1.2-1.6 1.4-2.8.7-1.1-.6-2.2-1.3-3.3-1.9-1-.6-1.8-.5-2.6.3-4.4 4.7-6.9 10-4.8 16.6.9 2.7 1.8 5.5 2.7 8.2 1.6 5.1 2.5 10.2 1.4 15.6-.9 4.3-2.6 8.2-5 11.8-5.5 8.2-13.3 13.7-22.1 17.8-.1.1-.3.1-.5.2-.8.2-1.6.4-2.2-.4-.4-.6-.3-1.2 0-1.8.6-1.1 1.3-2.2 1.7-3.4.9-2.3 1.2-4.6.4-7-1.8-5.3-7.2-8.3-12.6-6.9-3.4.9-6 2.9-8.2 5.6-4.1 4.9-5.9 10.6-6.2 16.8-.1 3-.1 6.1-.2 9.1-.2 6.7-2.3 12.8-6 18.5-3.5 5.3-8.2 8.9-14.1 10.9-4.3 1.5-8.7 2.3-13.1 2.8-5.7.7-10.9 2.3-15.4 5.9-.4.3-.8.6-1.2.7-.6.1-1.4.1-1.6-.6-.5-1.5-1-3.1-1.2-4.6-.5-3.7-.6-7.3-.2-11 .5-4.8 2.2-8.9 5.5-12.5 2.3-2.5 4.9-4.6 7.7-6.5 2.6-1.9 5.1-3.8 7.2-6.3 1.7-1.9 3.1-4 4-6.5 1-2.8.8-5.4-1.2-7.6-2.1-2.4-4.7-3.2-7.8-2.5-2.5.6-4.8 1.8-6.9 3.3-1 .8-2 1.6-3 2.3-1.1.8-2.4.3-2.5-1-1.5-14 1.9-26.3 12.4-36.2 3.8-3.5 8-6.4 12.5-8.9 5.1-2.9 10.6-5.3 15.9-7.8 5.4-2.5 10.7-5 16-7.7 5.6-2.8 10.5-6.6 14.9-11.2 3.2-3.4 5.5-7.4 7.3-11.8.4-1 .3-1.8-.6-2.5-.9-.6-1.9-1.2-2.8-1.8-2.1-1.4-2.3-2-.9-4.3 2-3.3 4-6.6 6-9.8 2-3.2 2-3.2-1.2-5-7.1-4-14.2-8.1-21.3-12.1-1.1-.6-2.2-1.3-3.3-2-1.2-.8-1.3-1.9-.2-2.7 1-.8 2.1-1.4 3.2-2.1 10.2-6.3 20.4-12.6 30.7-18.8 2.2-1.3 3.5-2.9 4.4-5.3 17.7-45.6 50.7-75.5 95.9-92.6 1.2-.5 2.4-.9 3.6-1.2 2.6-.7 3.4-.2 3.9 2.6 1.6 8.2 2.1 16.3 2.2 24.9z"/><path fill="#EDCFE4" d="M339.5 330.7c-.3 1.2.5 2.2 1.9 3 4 2.4 7.9 4.9 11.9 7.3 4 2.4 3.3 2.5 7.1-.2 46.9-32.4 75-76.7 84.6-132.8.4-2.4.7-4.7.9-7.1.1-1.3-.4-1.7-1.8-1.4-.6.1-1.2.4-1.8.6-6.2 2.2-12.2 4.8-18 7.8-40.9 21.4-68.4 53.8-80.3 98.8-2.1 7.7-3.4 15.5-4.5 24z"/><path fill="#E5384A" d="M252.9 481c.1 1.9.2 3.8.4 5.7.1 1.2.9 1.6 2 .9 4.6-2.8 9.7-3.9 15-4.6 4-.5 7.9-1.2 11.7-2.6 5.3-1.9 9.5-5.1 12.6-9.9 3.4-5.3 5.2-10.9 5.5-17.1.1-3 .1-6.1.2-9.1.3-6.9 2.5-13.2 7-18.5 2.4-2.9 5.3-5.1 9-6.2 9.1-2.7 17.8 4 17.4 13.4 0 .8-.2 1.6-.3 2.4-.1.7.6 1.2 1.3.8 5.2-2.9 9.8-6.5 13.6-11.2 6.9-8.4 9.1-17.8 5.2-28.2-1.1-2.8-2-5.7-2.7-8.7-1.3-5.1-.5-9.8 2.3-14.2.8-1.2 1.7-2.3 2.5-3.5 1.1-1.5 1.1-1.8-.7-2.9-3-1.9-6-3.7-9-5.5-2.7-1.7-5.4-3.4-8.2-5-1.9-1.1-2.1-1.1-3.1 1.1-1.8 3.8-3.7 7.4-6.6 10.5-3.8 4.1-8 7.8-12.9 10.7-4.4 2.6-9 4.9-13.6 7-5.5 2.5-11.1 5-16.5 7.7-5.2 2.5-10.1 5.4-14.6 9.1-4.7 3.8-8.3 8.4-11 13.7-2.7 5.4-3.5 11.2-3.2 17.2.1.9.7 1.2 1.7.7 1.1-.6 2.2-1.3 3.4-1.8 2.2-1.1 4.5-1.6 6.9-1.6 5.8.2 10.2 4.8 10.1 10.6 0 2.5-.9 4.7-2.1 6.8-2.1 3.7-5 6.6-8.3 9.2-2 1.6-4.1 3-6.1 4.6-6.2 4.8-9.3 10.8-8.9 18.5z"/><path fill="#B2ACBF" d="M448.5 225.9c0-3.9.2-8.2-.4-12.5-.1-.4-.1-.9-.6-.9-.1 0-.3.5-.4.8-.5 2.3-.9 4.7-1.4 7-11.7 50.8-38.7 91.3-81.3 121.4-1 .7-2.1 1.5-3.1 2.2-.8.6-.8 1.4.1 1.9 4.1 2.5 8.2 5 12.2 7.6 1.8 1.2 3.1.9 4.7-.2 20.4-13.7 37.3-30.6 49.6-51.9 13.4-23.1 19.8-48.3 20.6-75.4z"/><path fill="#151D38" d="M335.6 330.3c.9 0 .9-.6.9-1 1.3-9.8 3.2-19.5 5.9-29.1.1-.3.2-.6.2-.9 0-.3-.1-.7-.3-.8-.2-.1-.7-.1-.9.1-3.6 2.1-7.1 4.3-10.7 6.4-5.9 3.6-11.7 7.2-17.6 10.8-1.2.7-1.2 1.4 0 2.1 4.8 2.8 9.7 5.6 14.6 8.3 2.2 1.3 4.4 2.5 6.7 3.8.5.1 1 .2 1.2.3zM404.1 352.3s.1 0 0 0c.3-4.4.5-8.9.7-13.3 0-.6.2-1.3-.4-1.7-.7-.5-1.2.1-1.6.5-6.9 6.4-14.3 12.2-22 17.5-1.6 1.1-1.5 1.6.3 2.8 6.6 4.1 13.2 8.2 19.9 12.3.1.1.3.2.4.2.9.5 1.6.2 1.7-.7.2-1.1.3-2.2.4-3.3.2-4.8.4-9.6.6-14.3z"/><path fill="#B2ACBF" d="M372.8 357.7c.1-.5 0-.9-.4-1.2-.6-.5-1.3-.9-2-1.4-9.6-5.9-19.3-11.9-29-17.8-.5-.3-1.1-.6-1.6-1-.8-.5-1.5-.3-2.1.4-.6.8-.4 1.7.6 2.4.7.5 1.3.9 2 1.3 9.2 5.7 18.5 11.4 27.7 17 .8.5 1.6 1 2.5 1.4 1 .5 2.1-.1 2.3-1.1zM332.3 346.6c-.4.4-.9.6-1.1 1-.2.4-.4 1-.2 1.3.3.5.8 1 1.3 1.3 10.3 6.4 20.7 12.7 31 19 .4.2.9.5 1.3.5s.9-.3 1.1-.6c.4-.5.8-1.2.3-1.7-.7-.7-1.5-1.2-2.3-1.7-5.3-3.3-10.6-6.5-15.9-9.8-4.5-2.8-9-5.5-13.5-8.2-.5-.4-1.2-.7-2-1.1z"/><path fill="#EDCFE4" d="M335.3 341.4c-.3.3-.7.6-.9 1-.2.4-.3 1-.1 1.3.3.5.9.9 1.4 1.2 10.2 6.3 20.3 12.5 30.5 18.7.4.2.8.5 1.3.6.7.3 1.2-.1 1.6-.6.4-.6.5-1.3 0-1.7-1-.8-2-1.5-3.1-2.2-8.9-5.5-17.9-11-26.9-16.5-.9-.6-1.9-1.2-2.9-1.7-.1-.1-.5 0-.9-.1z"/><path fill="#151D38" d="M480.2 793.9c-1.5-.1-2.5-.9-3.7-1.4-6.8-3.5-13.8-6.8-20.9-9.5-1.7-.7-3.3-1.9-5.3-1.3 0 1.8 1.1 3.3 1.9 4.8 3.5 7 7.5 13.7 11.8 20.3.6.9 1.5 1.8 1.5 3 0 .4-.2 1-.5 1.2-.3.2-.9.3-1.3.1-1.2-.6-1.8-1.8-2.6-2.8-4.8-6.2-9.8-12.2-15.3-17.9-1.7-1.7-3.4-3.4-5.2-5-.6-.5-1.3-.3-1.4.5-.6 2.5-1.2 5-1.7 7.5-1.7 9.8-2.6 19.7-2.9 29.6 0 .8-.1 1.6-.1 2.4-.1.9-.5 1.6-1.4 1.7-1 .1-1.4-.7-1.4-1.5-.3-3.7-.5-7.3-.7-11-.5-8.2-1.4-16.2-2.9-24.3-.2-.8-.3-1.6-.5-2.4-.8-3.2-1.1-3.4-3.4-1.2-4 3.9-7.8 8-11.4 12.3-2.7 3.2-5.2 6.5-7.8 9.7-.6.7-1.2 1.5-1.9 2.2-.5.5-1.1.6-1.7.2-.5-.4-.7-1.2-.4-1.7.5-1.1 1.2-2.2 1.9-3.3 4-6.4 7.8-12.8 11.2-19.6.6-1.1 1.1-2.3 1.6-3.5.1-.2.1-.7-.1-.9-.2-.2-.6-.3-.8-.3-1.4.5-2.7.9-4 1.5-6.6 2.8-13.1 5.9-19.5 9.3-1 .5-2 1.1-3 1.6-.9.4-1.8.8-2.6-.1-.5-.6-.2-1.6.9-2.4.9-.7 1.9-1.2 2.8-1.9 6.3-4.1 12.4-8.5 18.2-13.3 1.4-1.1 2.7-2.3 4-3.5.8-.7.7-1.5-.3-1.7-1.4-.4-2.8-.7-4.2-.9-9.6-1.7-19.3-2.7-29.1-3-1.6-.1-3.2-.1-4.8-.3-.6-.1-1.2-.5-1.3-1.2-.1-1 .6-1.4 1.4-1.6 1.1-.2 2.2-.3 3.3-.3 8.5-.2 16.9-1 25.3-2.2 2.8-.4 5.7-1 8.5-1.6 1.3-.3 1.4-1.1.4-2-1.3-1.2-2.7-2.3-4.1-3.3-6.1-4.7-12.4-9-18.9-13.1-.9-.6-1.8-1.3-2.6-2-.2-.2-.2-1-.1-1.3.2-.3.8-.7 1.2-.6 1.1.3 2.1.7 3.1 1.2 6.3 3.2 12.6 6.2 19.1 8.9 1.5.6 3 1.2 4.5 1.7.9.3 1.9 1.2 2.7.5 1-1-.2-2-.6-2.9-3.5-7.4-7.7-14.4-12.1-21.3-.7-1.1-1.4-2.2-2-3.3-.4-.8-.4-1.5.4-2.1.6-.4 1.3-.2 1.7.3.9.9 1.6 2 2.4 3 5 6.4 10.2 12.7 16 18.5 1.4 1.5 2.7 3.2 4.7 4 1.9-1.6 1.6-3.9 2.1-6 1.3-6.4 2.1-12.9 2.6-19.5.4-4.6.6-9.3.9-13.9 0-.5.1-1 .2-1.4.2-.7.7-1.1 1.4-1.1.7.1 1.1.6 1.2 1.3.1.5.1.9.2 1.4.3 4.6.6 9.3.9 13.9.5 7.3 1.5 14.6 2.9 21.9.2.9.4 1.9.8 2.8.3.7.9.9 1.5.4 1.2-1.1 2.4-2.1 3.5-3.3 6.2-6.3 11.8-13.1 17.2-20 .7-.9 1.1-2 2.3-2.3.3-.1.7-.1.9 0 .3.3.7.7.7 1.1.1 1-.6 1.8-1.1 2.6-2.7 4.5-5.5 9-8.2 13.6-1.9 3.3-3.6 6.8-5.3 10.2-.3.5-.8 1.2-.1 1.7.6.5 1.2 0 1.8-.2 8.1-3.1 15.8-6.9 23.5-10.9 1.1-.6 2.3-1.1 3.5-1.5.3-.1 1 .2 1.2.6.2.3.2 1 0 1.4-.5 1.1-1.6 1.5-2.6 2.1-6.7 4.4-13.2 9-19.4 14.1-1.4 1.1-2.7 2.3-4 3.5-.8.7-.6 1.4.5 1.7 5.1 1.3 10.3 2.1 15.6 2.6 6.7.6 13.4 1.1 20.1 1.6.9.1 1.9.2 2.8.4.3.1.7.7.7 1.1 0 .4-.3 1-.7 1.1-.9.3-1.8.5-2.8.5-8.2.2-16.3 1-24.4 2-7.7.9-12.2 2-11.7 2.7 2.3 3.4 5.8 5.3 9 7.7 4.8 3.5 9.8 6.7 14.7 10 .9.6 1.8 1.3 2.6 2 .2.2.3.9.1 1.3-.3-.2-.8.1-1.1.3z"/><path fill="#E5384A" d="M458.1 751.6c-1.1-.8-2.1-.3-3.1.1-2.1.8-4.1 1.6-6.2 2.3-.9.3-1.9.6-2.7-.2-.9-.8-.4-1.8 0-2.6 1.1-2.5 2.2-4.9 3.3-7.4.3-.7.7-1.4.3-2.2l.4-.1h-.3l-5.4 5.4c-1.4 1.3-2.8 2.6-4.3 3.8-1.1.9-2.2.5-2.7-.8-.6-2-1.2-4-1.6-6-.7-3.8-1.3-7.5-2-11.3-.1-.4-.4-.7-.5-1.1-.1.3-.3.5-.4.8-.2.9-.4 1.9-.6 2.8-.8 4.1-1.5 8.2-2.4 12.2-.2 1.1-.7 2.1-1.1 3.1-.3.6-1.1.8-1.7.5-.7-.3-1.4-.8-2-1.3-1.8-1.6-3.5-3.3-5.2-5l-2.7-2.7c-.1-.1-.3-.2-.4-.1-.4.1-.4.4-.3.7 1.4 3.2 2.9 6.4 4.2 9.6.6 1.4-.5 2.6-2 2.2-3.5-1-7-2.1-10.4-3.7l-.3.2.4-.1c-.3.5-.2.9.1 1.3 1.1 1 2.2 1.8 3.3 2.8 1.6 1.4 3.2 2.7 4.6 4.2 1.2 1.2.9 2.4-.7 2.9-2.3.7-4.6 1.2-7 1.7-2.7.5-5.3.9-8 1.4-.2 0-.5.4-.5.7 0 .2.3.5.5.6 3.8.7 7.5 1.4 11.3 2.1 1.1.2 2.2.5 3.2.8 2.7.8 2.9 2 .8 4-1.7 1.7-3.6 3.2-5.4 4.8-.7.6-1.4 1.3-2.1 2-.1.1-.2.3-.2.4.3.1.6.3.7.3 1.2-.4 2.4-.9 3.6-1.3 2-.7 3.9-1.4 5.9-2 1.5-.4 2.5.8 1.9 2.2-1.1 2.7-2.3 5.3-3.4 7.9-.4.9-.7 1.8 0 2.7l-.3-.1.2.2c2.5-3.7 6-6.6 9.4-9.4 1-.9 2.2-.5 2.6.8.7 2.4 1.4 4.9 1.9 7.4.7 3.3 1.2 6.6 1.8 9.8.1.4.5.6.7 1 .1-.3.3-.6.3-.9.3-2 .6-4.1 1-6.1.6-3 1.2-5.9 1.9-8.9 1.1-4.4 1.9-4.7 5.1-1.8 2.2 2 4.4 4.2 6.5 6.3.5.5 1 1.3 1.9 1l-.1.3v-.2c-.3-.7-.6-1.5-.9-2.2-1.2-2.6-2.4-5.2-3.5-7.8-.7-1.8.2-2.8 2.1-2.4 2 .5 3.9 1.2 5.9 1.9 1.4.4 2.7.9 4.1 1.3.1 0 .3-.1.4-.2.1-.1.1-.3 0-.4-.2-.2-.4-.5-.7-.7-2.2-1.8-4.4-3.7-6.6-5.5-.8-.7-1.9-1.4-1.7-2.7.2-1.4 1.6-1.4 2.6-1.7 2.3-.6 4.7-1.1 7-1.5 2.3-.4 4.7-.7 7.1-1.1.3 0 .6-.2.9-.3-.3-.3-.6-.7-1-.9-.6-.2-1.2-.3-1.9-.4-3.8-.7-7.5-1.4-11.2-2.1-1.1-.2-2.1-.6-3.1-1.1-.6-.3-.8-1.1-.5-1.7.3-.7.8-1.4 1.4-1.9l7.5-6.6c-.1-.2.6-.7-.2-.5.2.1.3.3.5.5z"/><path fill="#151D38" d="M228.6 597.6c21.6-.1 39.4 18.3 39 40.1-.5 21.4-17.9 38.7-39.6 38.6-21.9-.1-39.4-17.9-39.2-39.9.3-22.4 19-39.4 39.8-38.8z"/><path fill="#B2ACBF" d="M228.5 600.4c-19.2-.4-36.7 15.3-36.9 36.3-.1 20.2 16.4 36.8 36.5 36.8 20 0 36.4-16.3 36.6-36.2.3-20.2-16.4-37-36.2-36.9z"/><path fill="#151D38" d="M1190.4 221.5c-13.6 0-26.5-11.5-26.2-27.4.3-14.8 12.7-26.5 27.5-26.2 14.8.3 26.5 12.6 26.2 27.5-.3 14.6-12.6 26.7-27.5 26.1z"/><path fill="#EDCFE4" d="M1191.1 218.7c13.3 0 24.1-10.8 24-24.2-.1-13-10.8-23.8-23.9-23.9-13.2-.1-24.3 10.8-24.3 24 .1 13.9 11.6 24.3 24.2 24.1z"/><path fill="#151D38" d="M1255 277.5c.7-.2 1.1.1 1.4.5.7 1 .5 2.1.5 3.2.2 3.7.2 7.3 1.2 10.9.3 1.1.6 2.2.9 3.2 2.1 6.2 6.4 9.7 13 10.4.9.1 1.9.2 2.8.5.5.1.7.7.6 1.1-.1.4-.5 1-.8 1-1.1.3-2.2.3-3.3.5-6.3.9-10.3 4.5-12.4 10.5-1.5 4.4-1.8 9-2 13.7 0 1.1.2 2.3-.4 3.3-.2.3-.7.6-1.1.8-.6.2-.9-.3-1-.7-.3-1.4-.4-2.8-.5-4.3-.2-3.3-.3-6.7-1.2-10-.2-.8-.4-1.5-.6-2.3-2-6.4-6.2-10.3-13-11.1-.6-.1-1.3-.1-1.9-.2-.8-.1-1.7-.3-1.7-1.2 0-1.3 1-1.4 2-1.5.5-.1 1-.1 1.4-.1 6.8-.7 11-4.5 13.2-10.8 1.3-3.8 1.7-7.8 1.9-11.8.1-1.6.3-3.2.5-4.7-.1-.3.3-.7.5-.9zm9.7 30c-.1-.3-.1-.7-.3-.8-4-2.4-6.6-5.9-8.2-10.2-.2-.4-.4-1-1-.7-.4.2-.7.6-.9 1-1.6 4.2-4.1 7.5-7.9 9.8-.7.4-.6 1.1 0 1.5 3.8 2.4 6.4 5.7 7.9 9.9.1.4.5.8.9.9.6.2.8-.3 1-.8 1.6-4.1 4-7.6 7.9-9.9.3-.1.4-.5.6-.7zM377.6 591.8c.7.1 1 .5 1.1 1 .1 1.3.2 2.5.2 3.8.2 4.2.6 8.3 1.9 12.3 2.1 6.6 6.3 10.6 13.4 11.1h.5c2.1.3 3.2.9 2.9 1.8-.5 1.3-1.8 1.1-2.8 1.2-8.8 1.4-12.5 4.8-14.5 13.5-.9 3.9-1.3 7.9-1.4 11.9 0 1 .3 2.3-1.1 2.8-.9.3-1.6-.7-1.6-2.8 0-3.5-.3-7-1-10.5-.5-2.5-1.2-5-2.4-7.3-2.2-4.1-5.5-6.6-10.1-7.3-1.4-.2-2.8-.4-4.3-.7-.5-.1-.8-.5-.9-1-.2-.8.4-1.2 1-1.4.7-.2 1.6-.3 2.4-.4 7.1-.5 11.3-4.6 13.4-11.2 1.2-4 1.8-8.1 1.9-12.3 0-1.3 0-2.6.2-3.8 0-.4.6-.9 1.2-.7zm0 42.1c.3-.5.5-.8.7-1.2 1.7-4.3 4.1-8 8.2-10.3.6-.4.6-1.1 0-1.6-5.5-4.7-11.1-5-16.7-.8-.4.3-.8.5-1.2.8-.6.5-.5 1.3.1 1.6 4.1 2.4 6.5 6 8.2 10.3 0 .3.2.5.7 1.2zM1291.7 685.7c-.2-.2-.6-.3-.7-.5-.2-.6-.4-1.2-.5-1.8-.2-2.1-.3-4.1-.6-6.2-.9-5.7-3.2-8-8.8-9.2-.9-.2-2 0-2.3-1.2-.2-.8.6-1.5 2.4-1.7 5.2-.4 7.5-3.8 8.5-8.3.5-2.2.5-4.4.8-6.6.1-.6.1-1.3.3-1.9.1-.5.5-.9 1-.8.4.1.9.3 1.1.7.7 1.1.5 2.5.5 3.7.1 2.4.4 4.8 1.2 7 1.3 3.4 3.5 5.7 7.2 6.1.9.1 1.9 0 2.7.8.2.2.3.6.3.8 0 .3-.2.7-.4.8-1 .4-2.1.7-3.2.9-3.5.6-5.6 2.9-6.7 6.1-.8 2.3-1.1 4.7-1.2 7.1-.1 1.3.1 2.6-.6 3.7 0 .3-.4.6-1 .5zm4.7-19.3c-.2-.3-.3-.6-.5-.8-1.3-1.2-2.4-2.6-3.3-4-.3-.5-.9-.4-1.2-.1-.4.3-.6.7-.9 1.1-1 1.2-2.7 2.3-2.9 3.6-.3 1.7 2 2.6 2.9 4.1 1.3 2.1 1.4 2 3.1-.1.8-1 1.7-1.9 2.5-2.9.2-.2.2-.6.3-.9zM608.7 851.6c.3.4.8.8.8 1.2.2 1.4.4 2.8.4 4.3.1 2.3.4 4.5 1.2 6.6 1.2 3.2 3.4 5.3 7 5.8.6.1 1.3.2 1.9.3.7.1 1.3.5 1.4 1.2.1 1-.6 1.3-1.5 1.5-.3.1-.6.1-.9.1-5.1.5-7.5 3.8-8.5 8.4-.4 1.7-.4 3.5-.6 5.2-.1 1-.1 1.9-.3 2.9-.1.6-.5 1.2-1.2 1.3-.8.1-1.2-.5-1.2-1.2-.2-1.9-.3-3.8-.6-5.7-.2-1.6-.5-3.2-1-4.7-1.1-3.3-3.3-5.4-6.8-6-.9-.2-1.9-.3-2.8-.6-.3-.1-.7-.7-.7-1.1 0-.4.4-.9.8-1.1.7-.3 1.5-.4 2.3-.5 3.7-.5 5.9-2.7 7.2-6.2.9-2.4.9-5 1.3-7.5.1-1.1.2-2.2.5-3.3.1-.4.7-.5 1.3-.9zm-.5 14.2c-.2.2-.5.3-.7.5-.9 1.1-1.8 2.3-2.7 3.3-1.2 1.4-1.3 1.5 0 2.6 1.5 1.2 1.9 3.3 3.8 4.1 1.3-1.5 2.7-3.1 4-4.6.3-.3.6-.9.1-1.3-1.8-1.2-2.4-3.6-4.5-4.6zM577.1 123.7c.1.2.6.4.7.8.2 1.2.3 2.5.4 3.8.2 2.2.4 4.5 1.1 6.6 1.2 3.2 3.2 5.5 6.7 6.1.8.1 1.6.3 2.3.5.6.2 1.3.3 1.3 1.2 0 1-.8 1.3-1.6 1.5-.6.1-1.3.2-1.9.2-3.3.5-5.4 2.5-6.7 5.6-1.1 2.6-1.2 5.3-1.4 8-.2 3.1-.7 4.2-1.7 3.8-1.7-.7-1.1-2.4-1.3-3.7-.4-2.2-.3-4.5-1-6.6-1.2-4-3.5-6.8-8-7.1-.6-.1-1.3-.2-1.8-.4-.4-.2-.7-.7-.8-1.1-.2-.5.3-.9.7-1.1.9-.3 1.8-.5 2.8-.7 3.6-.6 5.6-2.8 6.8-6 .7-2 .9-4 1.1-6.1.2-1.6.4-3.2.7-4.7.3-.5.8-.8 1.6-.6zm-.2 24.3c.2-.2.5-.4.7-.6.8-1.4 1.8-2.6 3-3.7.8-.7.7-1.5 0-2-1.7-1.2-2.1-3.5-4.1-4.3-1.3 1.5-3.2 2.9-3.9 4.7-.9 2.5 2.6 3.1 3.2 5.3.1.5.6.7 1.1.6zM448.4 525.3c.1.8-.3 1.1-.7 1.3-.9.3-1.8.5-2.8.7-3.6.6-5.7 2.8-6.8 6-.4 1.2-.7 2.5-.9 3.7-.3 1.7-.4 3.5-.6 5.2-.2 1.7-.8 2.7-1.5 2.5-1.4-.5-1.2-1.7-1.3-2.8-.1-2.7-.2-5.4-1.1-8-1.2-3.6-3.3-6.1-7.3-6.7-.8-.1-1.6-.3-2.3-.5-.4-.1-.8-.4-.8-1 0-.5.2-1 .7-1.1.7-.3 1.5-.5 2.3-.6 4-.5 6.2-2.9 7.4-6.5.9-2.6 1-5.3 1.1-8 .1-2.2.7-3.1 1.6-2.9 1.4.4 1 1.7 1.2 2.8.2 1.7.3 3.5.6 5.2.3 1.4.6 2.8 1.1 4.1 1.2 2.8 3.2 4.7 6.4 5.2.9.2 1.9.3 2.8.6.5.1.7.6.9.8zm-8.6.3c0-.1 0-.3-.1-.4-1.3-1.6-2.6-3.2-4-4.7-.3-.4-.9-.2-1.2.3-.8 1-1.4 2.1-2.3 3-1.7 1.9-1.7 1.9 0 3.7.9.9 1.5 2 2.3 3 .3.4.8.7 1.2.3 1.4-1.5 2.7-3.2 4-4.7.1-.2.1-.4.1-.5zM897.6 805.8c-.2.3-.3.9-.7 1.1-.7.3-1.5.5-2.3.6-4.7.5-6.9 3.6-7.9 7.8-.5 2.5-.6 5.1-1 7.6-.1.6-.3 1.2-.5 1.8-.1.2-.5.3-.8.3-.3 0-.7-.1-.8-.3-.6-.6-.5-1.5-.6-2.3-.1-2.2-.2-4.4-.7-6.7-1.1-4.6-3.4-7.9-8.5-8.4-1.8-.2-2.7-1-2.4-1.7.4-1.1 1.4-1.2 2.3-1.3 4.9-.4 7.3-3.4 8.4-7.9.5-2 .7-4.1.8-6.2.1-.9.1-1.9.4-2.8.1-.3.7-.7 1.1-.7.4 0 .9.4 1 .7.2.7.2 1.6.3 2.3.3 2.1.4 4.1.8 6.2 1 4.6 3.3 7.9 8.5 8.3.6 0 1.2.3 1.8.6.4.3.6.6.8 1zm-12.9 5.5c.1-.1.3-.1.4-.3 1.3-1.7 2.6-3.5 3.9-5.2-1.1-1.5-2.3-3-3.4-4.4-.1-.1-.2-.3-.3-.4-.5-.6-1-.8-1.5 0-.9 1.5-2 2.8-3.3 4-.5.5-.7 1.1-.2 1.6 1.3 1.3 2.6 2.8 3.5 4.4.3.4.6.5.9.3zM1096.2 415.5c-.2.3-.3.9-.6 1.1-.5.3-1.2.4-1.8.5-4.9.4-7.3 3.5-8.4 7.9-.4 1.9-.6 3.8-.9 5.7-.1.8 0 1.6-.1 2.4 0 .8-.3 1.6-1.2 1.8-.7.2-1.4-.8-1.5-2-.1-1 0-1.9-.1-2.9-.3-1.9-.5-3.8-1-5.7-1.1-4.1-3.5-6.7-7.9-7.2-.6-.1-1.3-.1-1.8-.4-.4-.2-.7-.7-.7-1.1 0-.4.4-1 .7-1.1.7-.3 1.6-.3 2.3-.4 4.1-.7 6.4-3.3 7.5-7.2.7-2.5.9-5 1-7.6.1-2.2.7-3.2 1.6-2.9 1.5.4 1.1 1.7 1.2 2.7.3 2.2.4 4.5.8 6.6.9 4.7 3.4 7.8 8.5 8.4.6.1 1.2.2 1.8.4.3.2.4.6.6 1zm-13.1-5.4c-.2.2-.5.3-.7.6-1 1.2-1.9 2.5-3 3.7-.8.8-1 1.4-.1 2.4 1.1 1.1 2 2.4 3 3.7.7.9 1 .9 1.7-.1l3.6-4.8c-1.3-1.6-2.5-3.2-3.8-4.8-.1-.4-.4-.5-.7-.7zM658.9 713.4c0 2-1.8 4-3.9 4.1-2.1.1-4-1.6-4.2-3.7-.2-2.3 1.8-4.4 4.1-4.4 1.9 0 3.9 1.9 4 4zm-3.1.3c-.1-.8-.5-1.3-1.2-1.1-.3.1-.8.5-.8.9 0 .6.4 1.1 1.1 1 .3-.1.6-.6.9-.8zM331.3 128.2c.1 2.2-1.5 4-3.6 4.2-2.1.2-4.1-1.4-4.3-3.5-.3-2.4 1.5-4.4 3.9-4.5 2 0 3.8 1.7 4 3.8zm-3.3.4c.1-.5-.2-.9-.7-1-.5-.1-.8.3-1 .7-.2.6.3.8.7.9.7.2.9-.2 1-.6zM1045.1 854.1c-2.3.1-4-1.4-4.2-3.6-.2-2.4 1.6-4.3 4-4.3 2.2 0 3.9 1.6 4 3.8 0 2.2-1.6 4-3.8 4.1zm-.3-3.1c.6.1.9-.2 1-.7.2-.6-.3-.8-.7-.9-.6-.2-.8.2-.9.7-.3.5.1.7.6.9zM1150.2 652.2c-2.1 0-4-1.8-4-3.9-.1-2.3 2-4.3 4.3-4.2 2.1.1 3.8 2.1 3.8 4.2-.1 2.1-2 3.9-4.1 3.9zm1-4c-.2-.7-.6-1-1.1-1-.5 0-.9.4-1 .9-.1.6.7 1.3 1.2 1 .5-.2.7-.6.9-.9zM1144.2 302.8c-.1 2.3-1.7 3.9-3.9 3.9-2.4 0-4.1-1.9-3.9-4.3.2-2.2 2-3.8 4.2-3.7 2.1.1 3.7 1.8 3.6 4.1zm-3.1-.3c-.1-.4-.3-.9-.9-.7-.4.1-.9.3-.7.9.1.4.4.8.9.7.5 0 .8-.3.7-.9zM217.4 235.1c2.1-.1 4 1.6 4.1 3.7.1 2.2-1.3 4.1-3.5 4.3-2.3.3-4.3-1.6-4.4-3.9 0-2.2 1.6-3.9 3.8-4.1zm1.1 4.2c0-.5-.3-.8-.8-1-.5-.1-.9.2-1 .6-.2.6.3 1.3.9 1.2.5 0 .8-.4.9-.8zM518.6 305.3c0 2-1.9 4-3.9 4.1-2.2.1-4.3-2-4.2-4.3.1-2.1 2-3.9 4.1-3.9 2.1.1 4 2.1 4 4.1zm-3.1.3c-.1-.8-.4-1.3-1.1-1.2-.3 0-.8.5-.9.8-.1.7.4 1.1 1 1.1.4 0 .8-.5 1-.7zM740.8 793.8c-.1 2.3-1.8 3.8-4.1 3.7-2.3-.1-3.8-1.7-3.7-4.1.1-2.3 1.8-3.8 4.1-3.7 2.3 0 3.8 1.7 3.7 4.1zm-4.6.4c1.2.4 1.4 0 1.6-.5.1-.6-.2-.8-.7-1-.6-.2-.8.3-.9.7-.3.6.1.8 0 .8zM837.3 345.2c-27.4.1-50-23.4-47.2-52.4.5-5.8 2.2-11.3 4.8-16.5 1.1-2.3 1.1-2.4-.9-4-8-6.4-13.3-14.6-15.9-24.5-6.7-25.1 9.7-51.8 36.7-56.5 15.8-2.7 36.8 3.7 47.4 22.9.4.7.7 1.4 1.1 2.1 1.2 2.3 1.3 2.3 3.6 1.2 4.1-1.9 8.3-3.3 12.7-4.1 27.9-4.9 56.3 17.8 52.9 50.1-2.8 25.7-24.1 40.1-43.4 40.5-3.9.1-4.3-.7-5.5 4.6-5 21.6-24.1 36.6-46.3 36.6z"/><path fill="#FAE0D6" d="M837.3 342.5c19.9 0 37.4-13.1 42.9-32.2.6-2 1-4 1.4-6.1.7-2.9.7-2.9 3.8-2.9 3.7 0 7.4-.1 11-1 3.3-.9 3.3-.8 1.3-3.8-.4-.5-.7-1-1-1.6-3.1-5.6-1.2-12.6 4.2-16 5.4-3.4 12.5-2 16.2 3.3.5.8.9 1.7 1.4 2.5.8 1.4 1.5 1.5 2.5.3 7.7-10.2 10.8-21.6 8.3-34.3-5.4-28.1-35.6-43.1-61.2-30.3-5.1 2.6-4.4 3.2-7.4-2.6-8.1-15.6-21.1-23.9-38.7-23.9-22.2 0-39.2 16.6-42 36.3-.3 1.8-1.5 3.9 0 5.5 1.1 1.2 3 .1 4.6.1 5.4-.2 10.3 3.4 11.7 8.8 1.5 5.6-1 11.1-6.1 13.8-.8.5-1.8.8-2.6 1.2-.7.3-.8 1-.4 1.6 2.2 3.4 5 6.2 8.1 8.8 1 .8 2 1.6 3 2.3.9.7 1.2 1.5.7 2.5-.4.9-.9 1.7-1.4 2.5-2.8 5.3-4.5 11-4.9 16.9-2 26.2 18.6 48.2 44.6 48.3z"/><path fill="#151D38" d="M742.2 460.1c3.7 0 6.6 2.9 6.7 6.6 0 3.7-2.9 6.7-6.5 6.8-3.7.1-7.1-3.2-7-7 .1-3.5 3.1-6.4 6.8-6.4zm3.6 6.6c0-2-1.6-3.6-3.7-3.6-2 0-3.6 1.7-3.5 3.7 0 2 1.8 3.7 3.7 3.6 1.9.1 3.5-1.7 3.5-3.7zM731.8 461c0 3.6-3.1 6.7-6.7 6.7-3.8.1-6.9-3.2-6.8-7.1.1-3.8 3-6.4 6.9-6.4 3.8.2 6.7 3.1 6.6 6.8zm-3.1.1c.1-2.1-1.4-3.7-3.5-3.7s-3.7 1.4-3.7 3.5c-.1 2 1.5 3.7 3.5 3.8 2 0 3.6-1.6 3.7-3.6zM745.9 384.5c1 .3 2.3.7 3.7 1.2 16 5.4 32 10.9 48.1 16.3 16.9 5.8 33.8 11.5 50.8 17.3.8.3 1.5.5 2.3.8 3.9 1.4 4 1.5 2.6 5.5-2.1 6.4-4.3 12.7-6.5 19-.8 2.2-1.4 2.5-3.6 1.7-9.4-3.2-18.7-6.4-28.1-9.5-24.3-8.3-48.7-16.6-73-24.8-1.7-.6-3.3-1.1-5-1.8-1-.4-1.4-1.3-1.2-2.3.1-.3.1-.6.2-.9 2.3-6.8 4.6-13.6 7-20.4.4-1.1.8-2.2 2.7-2.1zm-2.8 15.1c-.4.3-1 .4-1.2.7-.5.8-.8 1.8-1.1 2.7-1.8 5.2-1.8 4.7 3 6.3 31.6 10.8 63.2 21.5 94.8 32.3 1.2.4 2.4.9 3.6 1.2 1.4.4 1.9.1 2.5-1.4.2-.6.5-1.2.7-1.8 1.8-5.2 1.8-4.7-2.9-6.3-17.7-6-35.4-12.1-53-18.1-14.1-4.8-28.1-9.6-42.2-14.4l-4.2-1.2zM850.3 424c-.2-.2-.4-.7-.8-.9-.9-.4-1.8-.7-2.7-1-32-10.9-64.1-21.8-96.1-32.7-1.1-.4-2.1-.7-3.2-1-.9-.2-1.6 0-1.9.9-.2.4-.4.9-.5 1.3-2.2 6.5-2.5 5.5 3.5 7.6 31.6 10.8 63.2 21.6 94.8 32.3 1.1.4 2.1.7 3.2 1 .9.2 1.6 0 1.9-.9.6-1.8 1.3-3.6 1.9-5.4 0-.4-.1-.7-.1-1.2zM731.8 425.1c1.2.4 2.5.8 3.9 1.3 23.4 8 46.8 15.9 70.2 23.9 9.8 3.3 19.6 6.7 29.5 10 1.4.5 2.7.9 4 1.5.7.3 1.2 1.1.9 2-.1.5-.3.9-.4 1.4-1.5 5.1-1.6 5.1-6.6 3.4-33.2-11.3-66.5-22.7-99.7-34-1.4-.5-2.7-.9-4.1-1.4-1-.4-1.5-1.3-1.3-2.3.5-1.7 1.1-3.3 1.7-4.9.3-.6 1-.9 1.9-.9zm1.2 3.7c-.4.3-.7.4-.9.6-.3.4-.4 1 .1 1.3.8.5 1.7.9 2.6 1.2 6.8 2.3 13.6 4.7 20.4 7 25.5 8.7 51.1 17.4 76.6 26.1 1.2.4 2.4.8 3.7 1 .3.1.8-.3 1.1-.7.3-.4 0-1-.4-1.2-1.3-.6-2.6-1.1-4-1.6-15.9-5.4-31.7-10.8-47.6-16.2-16-5.5-32-10.9-48-16.3-1.3-.5-2.5-.9-3.6-1.2zM808.8 368.7c0-3.3 2.5-5.8 5.7-5.9 3.3-.1 6.1 2.8 5.9 6.2-.1 3.2-2.8 5.7-6 5.6-3.2-.1-5.6-2.6-5.6-5.9zm8.8 0c0-1.6-1.6-3.1-3.1-3-1.4.1-2.7 1.3-2.8 2.8-.1 1.7 1.2 3.2 2.8 3.3 1.5 0 3.1-1.5 3.1-3.1zM790.5 366.3c-3.2.1-5.8-2.4-6-5.6-.1-3.2 2.3-5.9 5.5-6 3.5-.2 6.3 2.4 6.2 5.8.1 3.2-2.5 5.7-5.7 5.8zm-.1-2.8c1.6 0 3.1-1.5 3-3.1-.1-1.6-1.6-2.9-3.2-2.8-1.5.1-2.7 1.3-2.7 2.8-.1 1.6 1.2 3.1 2.9 3.1zM723.6 336.1c-.1 3.3-2.6 5.6-5.9 5.5-3.3 0-5.7-2.4-5.7-5.8s2.8-6.1 6.1-5.9c3.2.3 5.6 2.9 5.5 6.2zm-2.9-.1c.1-1.6-1.2-3.1-2.8-3.2-1.5-.1-3 1.4-3 3 0 1.5 1.1 2.7 2.6 2.9 1.6.2 3.1-1 3.2-2.7zM887.2 399.2c-3.2 0-5.8-2.5-5.9-5.7-.1-3.1 2.5-5.8 5.6-6 3.4-.1 6.2 2.6 6.2 5.9-.1 3.2-2.7 5.7-5.9 5.8zm-3-6c-.1 1.6 1.4 3.1 3 3.1 1.4 0 2.8-1.2 3-2.6.2-1.5-1.2-3.2-2.8-3.3-1.6-.2-3.1 1.2-3.2 2.8zM868.7 385.2c0 3.2-2.5 5.8-5.7 5.8-3.1 0-5.8-2.6-5.9-5.7-.1-3.3 2.8-6.2 6-6.1 3.3.2 5.7 2.7 5.6 6zm-5.5-3c-1.6-.1-3.2 1.3-3.2 2.9 0 1.5 1.5 3.1 3.1 3.1 1.4 0 2.7-1.2 2.9-2.7 0-1.8-1.1-3.2-2.8-3.3zM911.5 407.4c-3.2.1-5.8-2.4-5.9-5.6-.1-3.3 2.2-5.9 5.4-6 3.4-.2 6.2 2.4 6.2 5.8.1 3.1-2.6 5.8-5.7 5.8zm-.1-2.8c1.6 0 3-1.5 3-3.1s-1.5-2.9-3.2-2.8c-1.5.1-2.6 1.2-2.7 2.8-.1 1.6 1.2 3.1 2.9 3.1zM742.1 349.9c-3.2.1-5.9-2.4-6-5.5-.2-3.2 2.2-5.9 5.4-6.1 3.6-.2 6.2 2.2 6.2 5.7.1 3.3-2.3 5.8-5.6 5.9zm2.8-5.9c0-1.7-1.4-3-3.1-2.8-1.5.1-2.7 1.3-2.8 2.7-.1 1.6 1.3 3.1 2.9 3.1 1.6.1 3-1.3 3-3zM844.6 376.8c0 3.3-2.3 5.8-5.6 5.9-3.5.1-6.1-2.4-6-5.9.1-3.2 2.6-5.7 5.8-5.7 3.2 0 5.7 2.5 5.8 5.7zm-2.9.3c.1-1.7-1.2-3.1-2.8-3.1-1.7-.1-3.1 1.3-3 3 0 1.5 1.2 2.7 2.6 2.9 1.6.1 3.1-1.1 3.2-2.8zM772 352.1c.1 3.2-2.4 5.9-5.6 6-3.3.2-6.2-2.7-6.2-6 .1-3 2.9-5.8 5.9-5.8 3.1 0 5.8 2.7 5.9 5.8zm-2.9.2c0-1.6-1.5-3.1-3.1-3.1-1.5.1-3 1.7-2.9 3.2.1 1.4 1.4 2.7 2.8 2.8 1.8.1 3.2-1.3 3.2-2.9zM969.4 295.6c.4 7.1-6.3 14.6-15.8 12.8-.6-.1-1.2-.5-1.7-.9-.4-.3-.6-.8-.3-1.2.2-.3.4-.6.6-.6 1.3 0 2.5.2 3.8.2 6.8.1 11.7-5.9 10.3-12.5-.7-3.1-2.5-5.4-5.3-7-.9-.5-2.3-.7-2-2.2.2-1 1.6-1.1 3.3-.3 4.5 2.3 7.1 6.6 7.1 11.7zM748.1 214.4c-5.3-.6-9.4 1.8-11.1 6.3-1.7 4.3-.3 9.1 3.5 12 1 .8 2.1 1.4 3.1 2.2.2.2.1.9 0 1.3-.1.2-.5.4-.8.4-.5 0-1 0-1.4-.2-6.2-2.5-9.4-9.8-7.2-16.3s9.2-10.2 15.7-8.3c.3.1.7.2.8.4.3.3.5.8.5 1.2.1.5-.4.9-.9 1-.7.1-1.5 0-2.2 0zM409.3 274.8c.1 5.1-4.2 9.5-9.4 9.6-5.2.1-9.5-4.1-9.5-9.4-.1-5.3 4-9.5 9.3-9.5 5.2-.1 9.5 4.1 9.6 9.3z"/><path fill="#FFF" d="M406.1 275.2c.1-3.5-2.6-6.5-6.1-6.7-3.4-.2-6.5 2.7-6.7 6.1-.2 3.4 2.7 6.5 6.2 6.6 3.5.2 6.5-2.5 6.6-6z"/><path fill="#151D38" d="M382.9 293.3c5.3.1 9.4 4.2 9.4 9.5-.1 5.2-4.4 9.4-9.6 9.3-5.2-.1-9.5-4.5-9.4-9.6 0-5.2 4.3-9.3 9.6-9.2z"/><path fill="#FFF" d="M382.9 309c3.5-.1 6.4-3.1 6.3-6.5-.1-3.5-3.2-6.3-6.6-6.2-3.5.1-6.4 3.2-6.3 6.6.1 3.4 3 6.1 6.6 6.1z"/><path fill="#151D38" d="M426.2 247c.1 5.3-4 9.5-9.2 9.6-5.2.1-9.5-4.1-9.5-9.4-.1-5.3 4-9.5 9.2-9.6 5.2 0 9.4 4.1 9.5 9.4z"/><path fill="#FFF" d="M423.2 247.2c0-3.5-3-6.5-6.4-6.5-3.4 0-6.4 3-6.4 6.5s2.9 6.5 6.4 6.5c3.4-.1 6.4-3.1 6.4-6.5z"/><path fill="#151D38" d="M228.2 667.9c-22.8.1-38-23.5-27.8-44.9.7-1.4 1.6-2.7 2.5-4.1.4-.7 1.1-1.3 2-1 1.2.4 1.1 1.5.8 2.4-1.2 4.9-1.2 9.8 0 14.7 4.7 18.6 25.6 28.2 43 19.1 1.1-.6 2.2-1.3 3.3-1.9.6-.3 1.3-.3 1.7.3.4.5.4 1.2 0 1.8-.7 1-1.5 2.1-2.3 3-6.2 7-13.9 10.6-23.2 10.6z"/><path fill="#FFF" d="M228.5 665.1c5 0 9.8-1.3 14.3-4.1.6-.4 1-.8 1.1-1.5-.5 0-.9-.1-1.4 0-5.2 1.1-10.5 1.2-15.7-.1-13.1-3.3-22.5-13.8-24.5-27.2-.1-.6-.1-1.3-.2-1.9-.1-.3-.3-.5-.4-.8-.2.2-.6.3-.7.6-.2.4-.4.9-.5 1.3-3.4 20 12.1 34 28 33.7z"/><path fill="#151D38" d="M1212.2 194.7c.6 10.9-9.5 23.5-25.1 20.9-.6-.1-1.2-.4-1.7-.7-.4-.2-.4-1.5.1-1.7l3.6-1.2c7.7-2.5 12.4-7.7 13.8-15.7 1.2-7-1.1-12.9-6.2-17.7-.9-.9-2-1.6-2.9-2.5-.4-.4-.5-.9-.2-1.3.3-.3.7-.7 1.1-.7 1.5-.1 2.8.4 4.2.9 9.4 3.6 13.7 12.8 13.3 19.7z"/><path fill="#FFF" d="M1203.1 182.5l.2-.2h-.3c5.6 8.7 2.8 19.6-2.3 25.3-.7.8-1.6 1.6-2.3 2.4-.3.4-1.3.7-.6 1.4.2.2.9.1 1.3-.1 5.3-2.6 8.7-6.9 10-12.7 1.2-5.6 0-10.8-3.6-15.3-.6-.8-1.3-1.5-2.4-.8z"/><path fill="#151D38" d="M852.2 283.7c-13.5.5-30.6-8.2-35.4-29-.4-1.6-.6-3.1-.8-4.7-.1-1 .9-1.8 1.9-1.6.9.2 1.8.5 2.7.8 18.6 6.3 37.2 12.6 55.8 19l1.8.6c2.1.8 2.4 2 .8 3.6-5.2 5-11.2 8.5-18.2 10.3-2.8.7-5.8 1.2-8.6 1z"/><path fill="#FFF" d="M851.8 281c8.3 0 15.6-2.8 22.1-7.9.4-.3.7-.6 1-1 .4-.4.2-1-.2-1.2-1.1-.6-2.3-1.1-3.5-1.5-11.6-3.9-23.3-7.9-34.9-11.8-5.1-1.7-10.3-3.5-15.4-5.2-.9-.3-1.6.3-1.5 1.2 0 .3 0 .6.1.9 3.2 15.2 16.9 26.4 32.3 26.5z"/><path fill="#151D38" d="M884.7 246.8c0 1.8-.1 3.5-1.3 5-.3.3-.8.5-1.3.2-.3-.2-.6-.4-.6-.6 0-.8.1-1.6.2-2.3.4-2.1.2-4.1-.5-6.1-1.7-4.6-4.8-7.5-9.7-8.3-5-.8-9.1.9-12.1 5-.7 1-1.3 2.2-2 3.2-.2.3-.8.3-1.3.3-.6 0-.8-.5-.8-1 0-.8.2-1.6.3-2.4.8-6-2.3-11.4-7.6-13.5-5.6-2.2-11.7-.2-15 5-.5.8-.9 1.7-1.4 2.5-.4.6-1 .8-1.7.5-.6-.3-.8-1-.6-1.6.2-.6.4-1.2.7-1.8 2.9-5.5 7.5-8.3 13.6-8.3 6 0 10.6 3 13.5 8.4.7 1.3.3 3.7 2.2 3.9 1.2.1 2.4-1.3 3.7-1.9 10.1-4.8 21.8 2.7 21.7 13.8zM808.7 232.9c-3.8 0-6.6-2.9-6.5-6.7.1-3.5 3-6.4 6.4-6.4 3.5 0 6.4 2.9 6.6 6.3.1 3.7-2.8 6.8-6.5 6.8zM900 263.8c-3.8 0-6.6-2.8-6.5-6.7.1-3.6 2.8-6.2 6.5-6.2 4.3-.1 6.7 3.6 6.6 6.7-.2 3.5-3.1 6.2-6.6 6.2z"/><path fill="#151D38" d="M843.5 232.6c3.1 0 5.5 2.4 5.5 5.4 0 2.8-2.3 5.2-5.1 5.3-3 .2-5.6-2.2-5.7-5.2-.2-3 2.2-5.5 5.3-5.5zM869.4 252.1c-3-.1-5.4-2.6-5.2-5.6.2-3.1 2.6-5.2 5.8-5 2.8.2 5 2.5 5 5.3 0 3-2.5 5.3-5.6 5.3z"/></svg>